<svg xmlns="http://www.w3.org/2000/svg"  viewBox="0 0 48 48" width="48px" height="48px"><path fill="#ec407a" d="M41.622 27.5L24 27.5V7c12.214 0 15.112 4.035 15.267 5S41.622 27.5 41.622 27.5zM6.378 27.5L24 27.5V7C11.786 7 8.888 11.035 8.733 12 8.577 12.965 6.378 27.5 6.378 27.5z"/><path fill="#ad1457" d="M24 15A13 5 0 1 0 24 25A13 5 0 1 0 24 15Z"/><path fill="#ff80ab" d="M24 28A19 7 0 1 0 24 42A19 7 0 1 0 24 28Z"/><path fill="#ff80ab" d="M40,17l-0.629,3.772c-0.238,1.427-1.03,2.703-2.203,3.55l-0.405,0.292 c-2.257,1.628-5.445,0.478-6.143-2.216L30,20c0,0-1.429-2-6-2s-6,2-6,2l-0.621,2.398c-0.697,2.694-3.886,3.844-6.143,2.216 l-0.405-0.292c-1.174-0.847-1.965-2.123-2.203-3.55L8,17L5,35h38L40,17z"/><path fill="#fff" d="M26,27c0,1.105-2,5-2,5s-2-3.895-2-5s0.895-2,2-2S26,25.895,26,27z"/><path fill="#fff" d="M22,35c0-1.105,2-5,2-5s2,3.895,2,5s-0.895,2-2,2S22,36.105,22,35z"/><path fill="#fff" d="M19.536,31.268c0.957-0.552,5.33-0.768,5.33-0.768s-2.374,3.68-3.33,4.232s-2.18,0.225-2.732-0.732 C18.252,33.043,18.579,31.82,19.536,31.268z"/><path fill="#fff" d="M28.464,30.732c-0.957,0.552-5.33,0.768-5.33,0.768s2.374-3.68,3.33-4.232 c0.957-0.552,2.18-0.225,2.732,0.732C29.748,28.957,29.421,30.18,28.464,30.732z"/><path fill="#fff" d="M26.464,34.732c-0.957-0.552-3.33-4.232-3.33-4.232s4.374,0.216,5.33,0.768 c0.957,0.552,1.284,1.775,0.732,2.732C28.644,34.957,27.421,35.284,26.464,34.732z"/><path fill="#fff" d="M21.536,27.268c0.957,0.552,3.33,4.232,3.33,4.232s-4.374-0.216-5.33-0.768 c-0.957-0.552-1.284-1.775-0.732-2.732C19.356,27.043,20.579,26.716,21.536,27.268z"/><path fill="#ff9800" d="M24 29A2 2 0 1 0 24 33A2 2 0 1 0 24 29Z"/><path fill="#fff" d="M331 -409L-369 -409 -369 -175 -386 -175 -386 140 -63 140 -63 -4 331 -4z" opacity=".73"/></svg>