<svg xmlns="http://www.w3.org/2000/svg"  viewBox="0 0 48 48" width="48px" height="48px"><path fill="#f26f6c" d="M27 36h-6c0-3-1.604-7.125-4-7.708h14C29.187 28.712 27 33 27 36zM15.105 20.789C4.234 15.353 3.053 3.675 3.008 3.181l3.983-.368c.039.406 1.063 9.978 9.903 14.398L15.105 20.789zM32.895 20.789l-1.789-3.578c8.841-4.42 9.864-13.992 9.903-14.398l3.983.368C44.947 3.675 43.766 15.353 32.895 20.789z"/><path fill="#f26f6c" d="M24 4A18 13.5 0 1 0 24 31A18 13.5 0 1 0 24 4Z"/><path fill="#ce5757" d="M24 6.25A15 11.25 0 1 0 24 28.75A15 11.25 0 1 0 24 6.25Z"/><path fill="#ce5757" d="M25,36h-2c0-3-0.604-7.125-3-7.708h8C26.187,28.712,25,33,25,36z"/><path fill="#ffc107" d="M9.75 21c1.963 4.498 7.597 7.75 14.25 7.75S36.287 25.498 38.25 21H9.75zM27 43c0 1.657-1.343 3-3 3s-3-1.343-3-3 2-4 3-5C25 39 27 41.343 27 43z"/><path fill="#ce5757" d="M8.278 7.718c-.713.741-1.795 2.043-2.653 3.704C5.922 12 6.609 13.09 6.832 13.426c.762-1.637 1.719-2.885 2.442-3.677C9.099 9.427 8.427 8.032 8.278 7.718zM39.625 7.828c.713.741 1.783 2.12 2.641 3.781-.203.422-.907 1.511-1.129 1.848-.762-1.637-1.719-2.885-2.442-3.677C38.87 9.458 39.476 8.142 39.625 7.828z"/><path fill="#f2dd5f" d="M24 20A14 1 0 1 0 24 22A14 1 0 1 0 24 20Z"/></svg>