<svg xmlns="http://www.w3.org/2000/svg"  viewBox="0 0 48 48" width="48px" height="48px"><path fill="#00acc1" d="M23 38H29V43H23z"/><path fill="#00acc1" d="M26 47L32 42 20 42z"/><path fill="#f26f6c" d="M38,14h-7c3.309,0,6-2.691,6-6s-2.691-6-6-6h-9v6h-4h-3c-3.309,0-6,2.691-6,6s2.691,6,6,6h-5 c-3.309,0-6,2.691-6,6s2.691,6,6,6h11.375C22.883,32,23,33.531,23,34v2h6v-2c0-4.561-3.278-8-7.625-8H25h1h12c3.309,0,6-2.691,6-6 S41.309,14,38,14z"/><path fill="#ce5757" d="M15 20h23c.552 0 1-.448 1-1s-.448-1-1-1H10.54C11.64 19.224 13.229 20 15 20zM31.009 14h-17c-.552 0-1-.448-1-1s.448-1 1-1h21.46C34.37 13.224 32.78 14 31.009 14zM31 8c.552 0 1-.448 1-1s-.448-1-1-1h-9v2H31zM42.46 24H10c-.552 0-1 .448-1 1s.448 1 5 1h7.375H25h1 12C39.771 26 41.36 25.224 42.46 24z"/><path fill="#efa3a3" d="M11.5 14c-.276 0-.5-.224-.5-.5 0-1.21.731-3.5 3.5-3.5.276 0 .5.224.5.5S14.776 11 14.5 11c-2.472 0-2.5 2.398-2.5 2.5C12 13.776 11.776 14 11.5 14zM33.5 7.999c-.274 0-.498-.222-.5-.497C32.998 7.246 32.912 5 30.5 5 30.224 5 30 4.776 30 4.5S30.224 4 30.5 4C33.269 4 34 6.29 34 7.5c0 .275-.223.498-.498.499C33.501 7.999 33.501 7.999 33.5 7.999zM40.5 19.999c-.274 0-.498-.222-.5-.497C39.998 19.246 39.912 17 37.5 17c-.276 0-.5-.224-.5-.5s.224-.5.5-.5c2.769 0 3.5 2.29 3.5 3.5 0 .275-.223.498-.498.499C40.501 19.999 40.501 19.999 40.5 19.999zM7.5 26C7.224 26 7 25.776 7 25.5c0-1.21.731-3.5 3.5-3.5.276 0 .5.224.5.5S10.776 23 10.5 23C8.028 23 8 25.397 8 25.5 8 25.776 7.776 26 7.5 26z"/></svg>