<svg xmlns="http://www.w3.org/2000/svg"  viewBox="0 0 48 48" width="48px" height="48px"><path fill="#455a64" d="M19,29v3v15h10l-2-8l2-7v-3H19z"/><path fill="#2196f3" d="M32,22h-3v9H19v-7l-3-2c0-3.04,1.72-5.7,4.23-7.05c0.59-0.32,1.22-0.56,1.89-0.72	c0-0.01,0-0.01,0-0.01C22.72,14.08,23.35,14,24,14c0.67,0,1.33,0.08,1.95,0.24c0.68,0.17,1.32,0.43,1.92,0.76	c0.65,0.37,1.25,0.82,1.78,1.35C31.1,17.8,32,19.8,32,22z"/><path fill="#e3f2fd" d="M27.87,15c-0.12,0.59-0.42,1.26-0.97,1.84C26.4,17.37,25.5,18,24,18s-2.4-0.74-2.9-1.26	c-0.47-0.59-0.76-1.2-0.87-1.79c0.59-0.32,1.22-0.56,1.89-0.72c0.08,0.6,0.48,1.56,1.88,1.56c1.39,0,1.8-0.95,1.95-1.55	C26.63,14.41,27.27,14.67,27.87,15z"/><path fill="#ff9800" d="M26,11h-4v3c0,0-0.1,2,2,2s2-2,2-2V11z"/><path fill="#263238" d="M22,47h3l-2-8l1-6l-2,6V47z"/><path fill="#ffb74d" d="M24,13c-2.8,0-5-2.2-5-5s2.2-5,5-5s5,2.2,5,5S26.8,13,24,13 M24.08,31.801L19.4,22H16l0,0	l5.175,11.076C21.434,33.639,21.997,34,22.617,34l0,0C23.75,34,24.518,32.847,24.08,31.801z M29,22v8v1v1.5	c0,0.828,0.672,1.5,1.5,1.5l0,0c0.828,0,1.5-0.672,1.5-1.5V22H29z"/><path fill="#424242" d="M23.8,1C21.3,1.2,19,2.9,19,6.6V8l1,1V6l6.3-2.2L28,6v3l1-1V6.8c0-2.4-0.1-4.2-3-4.8l-0.5-1H23.8z"/></svg>