<svg xmlns="http://www.w3.org/2000/svg"  viewBox="0 0 48 48" width="48px" height="48px"><polygon fill="#f57f17" points="37,42 11,42 11,10.233 23.593,6.664 37,10.889"/><rect width="16" height="27" x="16" y="15" fill="#e65100"/><rect width="2" height="5" x="18" y="26" fill="#5d4037"/><polygon fill="#e65100" points="11,10.233 11,15.374 24,9.989 37,15.374 37,10.889 23.593,6.664"/><polygon fill="#f57f17" points="41.635,11.315 24.046,4.029 24,4.14 23.954,4.029 6.365,11.315 7.713,14.57 24,7.824 40.287,14.57"/><path fill="#5d4037" d="M25.083,17.986c-0.453,0-0.851,0.229-1.083,0.577c-0.233-0.347-0.631-0.577-1.083-0.577	c-0.718,0-1.3,0.577-1.3,1.288c0,1.282,2.026,1.9,2.384,2.726c0.358-0.827,2.384-1.434,2.384-2.726	C26.384,18.562,25.801,17.986,25.083,17.986"/></svg>