<svg xmlns="http://www.w3.org/2000/svg"  viewBox="0 0 48 48" width="48px" height="48px"><path fill="#BF360C" d="M38.045,15c0,0-1-1-4-1s-4,1-4,1V6h8V15z"/><path fill="#546E7A" d="M6.045,23v8l3,2l1,14h8l1-14l3-2v-8c0-4.418-3.582-8-8-8S6.045,18.582,6.045,23"/><path fill="#FF9800" d="M36.045 12h-4v3c0 0-.124 2 1.959 2s2.041-2 2.041-2V12zM16.046 12h-4v3c0 0-.124 2 1.959 2s2.041-2 2.041-2V12z"/><path fill="#FFB74D" d="M34.045 14c-2.758 0-5-2.243-5-5s2.242-5 5-5 5 2.243 5 5S36.803 14 34.045 14M14.045 14c-2.758 0-5-2.243-5-5s2.242-5 5-5 5 2.243 5 5S16.803 14 14.045 14M36.024 15.257C35.958 15.792 35.63 17 34.004 17c-1.623 0-1.903-1.204-1.949-1.74-3.453.886-6.01 4.011-6.01 7.74v8l3 2 1 14h8l1-14 3-2v-8C42.045 19.267 39.483 16.14 36.024 15.257z"/><path fill="#424242" d="M13.826,2c-2.438,0.219-4.781,1.93-4.781,5.574V9l1,1V7l6.31-2.201L18.045,7v3l1-1V7.798c0-2.414-0.135-4.206-3-4.798L15.56,2H13.826z"/><path fill="#FF5722" d="M34.045,2c-3.038,0-7,1-7,10l3,3V8.5l6-3.5l2,2.5V15l3-3c0-2.012,0-9-5-9l-0.5-1H34.045z"/><path fill="#E91E63" d="M38.67,23h3.375c0-3.733-2.562-6.86-6.021-7.743C35.958,15.792,35.63,17,34.004,17c-1.623,0-1.903-1.204-1.949-1.74c-3.453,0.886-6.01,4.011-6.01,7.74h3.417L25,38c0,0,2.628,2,9.128,2S43,38,43,38L38.67,23z"/></svg>