<svg xmlns="http://www.w3.org/2000/svg"  viewBox="0 0 48 48" width="48px" height="48px"><path fill="#1E88E5" d="M33,12.572C33,7.838,28.97,4,23.999,4l0,0c-4.971,0-9,3.838-9,8.572v6.855c0,4.734,4.029,8.572,9,8.572l0,0C28.97,28,33,24.162,33,19.428V12.572z"/><path fill="#3F51B5" d="M19 25v-1c0-.553-.447-1-1-1h-1c-.553 0-1 .447-1 1v1H19zM32 25v-1c0-.553-.447-1-1-1h-1c-.553 0-1 .447-1 1v1H32z"/><path fill="#64B5F6" d="M29 44L19 44 20 34 28 34zM34 28c0 .553-.447 1-1 1H15c-.553 0-1-.447-1-1v-2c0-.553.447-1 1-1h18c.553 0 1 .447 1 1V28z"/><g><path fill="#BBDEFB" d="M29.251 19.273c0 2.812-2.352 5.091-5.251 5.091l0 0c-2.899 0-5.251-2.279-5.251-5.091v-6.909c0-2.812 2.352-5.091 5.251-5.091l0 0c2.899 0 5.251 2.279 5.251 5.091V19.273zM15.059 29c.498 4.5 4.309 8 8.941 8 4.633 0 8.443-3.5 8.941-8H15.059z"/></g></svg>