<svg xmlns="http://www.w3.org/2000/svg"  viewBox="0 0 48 48" width="48px" height="48px"><path fill="#64b5f6" d="M20,29c0,0.553-0.447,1-1,1H2c-0.553,0-1-0.447-1-1v-2c0-0.553,0.447-1,1-1h17c0.553,0,1,0.447,1,1	V29z"/><polygon fill="#64b5f6" points="15,45 6,45 7,35 14,35"/><polygon fill="#546e7a" points="39,45 33,45 32,30 40,30"/><path fill="#bbdefb" d="M18,26H3v-9c0-2.209,1.791-4,4-4h7c2.209,0,4,1.791,4,4V26z"/><path fill="#bbdefb" d="M27,24V9c0-2.761,2.239-5,5-5h8c2.761,0,5,2.239,5,5v15"/><path fill="#fff" d="M39,4L27,15V9c0-2.761,2.239-5,5-5H39z"/><path fill="#fff" d="M41.671,4.307L27,18v4L43.987,6.012C43.403,5.235,42.604,4.64,41.671,4.307z"/><path fill="#7986cb" d="M46,24h-2V9c0-2.206-1.794-4-4-4h-8c-2.206,0-4,1.794-4,4v15h-2V9c0-3.309,2.691-6,6-6h8	c3.309,0,6,2.691,6,6V24z"/><path fill="#bbdefb" d="M19,30c0,4.418-3.806,8-8.5,8S2,34.418,2,30H19z"/><path fill="#546e7a" d="M37,24h-2v-6c0-0.551-0.449-1-1-1s-1,0.449-1,1v1h-2v-1c0-1.654,1.346-3,3-3s3,1.346,3,3V24z"/><polygon fill="#546e7a" points="31,24 30,22 33,22 33,24"/><polygon fill="#546e7a" points="39,24 39,22 42,22 41,24"/><path fill="#cfd8dc" d="M39.079,30h-6.158c-3.703,0-6.947-2.458-7.921-6l0,0h22C46.026,27.542,42.782,30,39.079,30z"/></svg>