<svg xmlns="http://www.w3.org/2000/svg"  viewBox="0 0 48 48" width="48px" height="48px"><polygon fill="#64b5f6" points="24,44 8,44 8,38 21,38"/><path fill="#bbdefb" d="M21,38H8c0-4-4-5-4-11h26v2C30,33.971,25.971,38,21,38z"/><path fill="#64b5f6" d="M30,27H4v-4h26c1.1,0,2,0.9,2,2l0,0C32,26.1,31.1,27,30,27z"/><path fill="#bbdefb" d="M15,23H4V6c0-1.105,0.895-2,2-2h7c1.105,0,2,0.895,2,2V23z"/><path fill="#607d8b" d="M32,12V5c0-0.552,0.448-1,1-1h10c0.552,0,1,0.448,1,1v7c0,0.552-0.448,1-1,1H33	C32.448,13,32,12.552,32,12z"/><polygon fill="#bbdefb" points="43,19 40.5,18 38,19 35.5,18 33,19 33,13 43,13"/></svg>