<svg xmlns="http://www.w3.org/2000/svg"  viewBox="0 0 48 48" width="48px" height="48px"><path fill="#bf360c" d="M28,15c0,0-1-1-4-1s-4,1-4,1V6h8V15z"/><path fill="#e91e63" d="M15.4,36.3c0,0,2.2,2,8.7,2s8.6-2,8.6-2l-4-13.3H32l0,0c0-4.4-3.6-8-8-8s-8,3.6-8,8l0,0h3.4	L15.4,36.3z"/><path fill="#ff9800" d="M26,12h-4v3c0,0-0.1,2,2,2s2-2,2-2V12z"/><path fill="#ffb74d" d="M24.214,4.004c-2.973-0.118-5.328,2.237-5.21,5.21c0.101,2.547,2.235,4.68,4.782,4.782	c2.973,0.118,5.328-2.237,5.21-5.21C28.894,6.239,26.761,4.106,24.214,4.004z M27.71,44.41L26,41l0.6-2.8c-0.7,0.1-1.6,0.1-2.5,0.1	c-1.9,0-3.5-0.1-4.7-0.4l0.48,7.23c0.07,1.052,0.944,1.87,1.998,1.87H22c0.33,0,0.65-0.08,0.92-0.23c0.18-0.09,0.35-0.21,0.49-0.36	C23.78,46.05,24,45.55,24,45l0.51,1.01c0.3,0.61,0.92,0.99,1.6,0.99C27.44,47,28.3,45.6,27.71,44.41z"/><path fill="#ff9800" d="M24,45c0,0.55-0.22,1.05-0.59,1.41c-0.14,0.15-0.31,0.27-0.49,0.36L21,41l0.8-2.7h0.6L22,41L24,45z"/><path fill="#ff5722" d="M24,2c-3,0-7,1-7,10l3,3V8.5L26,5l2,2.5V15l3-3c0-2,0-9-5-9l-0.5-1H24z"/><path fill="#ffb74d" d="M32,23l-5.16,10.17C26.58,33.7,26.05,34,25.5,34c-0.23,0-0.46-0.05-0.67-0.16	c-0.74-0.37-1.04-1.27-0.67-2.01L28.58,23H32z"/><path fill="#ffb74d" d="M23.17,33.84C22.96,33.95,22.73,34,22.5,34c-0.55,0-1.08-0.3-1.34-0.83L16,23h3.43l4.41,8.83	C24.21,32.57,23.91,33.47,23.17,33.84z"/></svg>